<?xml version="1.0" standalone="no"?>
<!DOCTYPE svg PUBLIC "-//W3C//DTD SVG 20010904//EN"
 "http://www.w3.org/TR/2001/REC-SVG-20010904/DTD/svg10.dtd">
<svg version="1.0" xmlns="http://www.w3.org/2000/svg"
 width="383.000000pt" height="108.000000pt" viewBox="0 0 383.000000 108.000000"
 preserveAspectRatio="xMidYMid meet">

<g transform="translate(0.000000,108.000000) scale(0.100000,-0.100000)"
fill="#000000" stroke="none">
<path d="M250 1034 c-67 -24 -156 -91 -190 -142 -104 -157 -39 -375 135 -454
69 -30 180 -31 248 0 62 28 137 82 137 99 0 22 -27 14 -75 -23 -87 -66 -197
-70 -296 -11 -91 54 -147 161 -136 259 26 214 227 307 404 186 47 -32 61 -34
88 -14 17 12 17 16 5 31 -7 9 -41 30 -74 47 -76 39 -176 47 -246 22z"/>
<path d="M880 1041 c-48 -16 -130 -61 -164 -92 -19 -17 -48 -56 -63 -87 -24
-49 -28 -69 -28 -142 0 -73 4 -92 27 -135 59 -111 154 -169 278 -169 60 0 86
5 132 26 68 32 140 96 176 157 24 41 27 56 27 136 0 75 -4 98 -24 139 -52 106
-146 167 -265 172 -39 2 -82 0 -96 -5z m146 -58 c70 -24 147 -103 168 -173 20
-66 20 -103 2 -164 -20 -67 -62 -123 -115 -154 -39 -23 -58 -27 -121 -27 -65
0 -82 4 -130 31 -98 56 -160 171 -146 273 13 99 86 198 161 220 49 15 128 12
181 -6z"/>
<path d="M1394 1033 c-54 -32 -61 -38 -73 -60 -7 -15 -11 -108 -11 -292 0
-284 1 -289 43 -257 15 12 17 37 17 275 0 162 4 270 10 282 8 14 21 19 49 19
66 0 132 -30 187 -84 75 -76 84 -111 84 -328 0 -187 2 -195 44 -165 16 11 17
31 14 207 -3 183 -5 198 -27 244 -49 99 -142 164 -249 173 -43 3 -64 0 -88
-14z"/>
<path d="M1883 1034 c-18 -9 -44 -28 -58 -42 l-25 -25 0 -278 c0 -154 2 -279
5 -279 2 0 16 5 30 12 l25 11 0 264 c0 163 4 272 10 284 8 14 21 19 49 19 67
0 132 -30 188 -85 73 -74 83 -114 83 -332 0 -182 2 -190 44 -160 16 12 17 31
14 207 -3 183 -5 198 -27 244 -49 99 -143 164 -249 172 -41 4 -66 0 -89 -12z"/>
<path d="M2465 1039 c-47 -14 -126 -80 -149 -124 -19 -36 -21 -57 -21 -195 0
-151 1 -156 28 -202 18 -31 44 -57 75 -75 42 -25 58 -28 158 -32 93 -2 116 0
138 14 14 10 26 21 26 26 0 5 -48 9 -107 9 -163 1 -228 40 -253 153 -22 96
-28 92 160 95 134 2 167 5 182 19 10 8 15 20 12 24 -3 5 -86 9 -185 9 l-179 0
0 38 c0 61 27 135 60 167 30 29 34 30 147 33 112 4 163 17 163 43 0 12 -216
10 -255 -2z"/>
<path d="M3015 1041 c-90 -24 -191 -104 -233 -186 -35 -67 -37 -186 -5 -256
90 -199 329 -244 514 -98 71 56 36 70 -40 15 -110 -81 -252 -71 -351 25 -80
78 -104 174 -70 282 25 82 85 149 146 166 86 24 184 7 250 -44 37 -29 52 -31
79 -11 19 14 19 15 0 37 -49 55 -205 93 -290 70z"/>
<path d="M3382 1034 c-12 -8 -20 -20 -17 -25 4 -5 51 -9 106 -9 l99 0 0 -295
c0 -311 2 -323 43 -277 15 16 17 52 17 295 l0 277 78 0 c75 0 122 15 122 41 0
5 -86 9 -213 9 -177 0 -216 -3 -235 -16z"/>
<path d="M805 310 c-11 -5 -14 -9 -7 -9 9 -1 12 -29 12 -105 0 -74 -4 -106
-12 -109 -7 -3 4 -6 25 -6 35 -1 36 0 25 19 -10 16 -10 22 0 32 11 11 16 9 28
-7 8 -11 12 -25 10 -32 -4 -9 6 -13 34 -13 l39 0 -41 39 -42 39 34 21 35 21
-34 0 c-19 0 -31 -3 -28 -7 8 -7 -21 -43 -35 -43 -4 0 -8 38 -8 85 0 47 -3 85
-7 84 -5 0 -17 -4 -28 -9z"/>
<path d="M43 286 c15 -12 16 -21 7 -87 -13 -95 -17 -107 -38 -112 -9 -3 6 -5
33 -6 38 0 46 2 33 10 -14 8 -18 22 -17 62 1 29 4 66 8 82 6 28 9 24 41 -57
19 -49 38 -88 41 -88 4 0 9 11 13 24 3 13 18 51 34 86 l28 63 13 -79 c12 -72
12 -79 -5 -91 -15 -11 -11 -13 37 -12 30 1 46 3 37 6 -19 5 -33 47 -44 132 -6
46 -4 56 11 68 17 12 14 13 -27 13 -40 0 -45 -3 -41 -18 2 -10 -8 -45 -22 -78
l-26 -59 -25 60 c-14 33 -23 68 -20 78 3 14 -3 17 -42 17 -41 -1 -45 -2 -29
-14z"/>
<path d="M1430 286 c0 -8 4 -17 9 -20 11 -7 33 18 24 27 -12 12 -33 7 -33 -7z"/>
<path d="M2217 282 c-36 -39 -19 -70 56 -107 50 -25 66 -47 48 -69 -24 -29
-66 -20 -101 22 -29 33 -32 34 -26 12 3 -14 6 -32 6 -41 0 -12 13 -18 45 -22
55 -8 92 5 107 37 15 35 -9 69 -72 101 -51 26 -66 57 -34 69 28 11 44 6 69
-19 l25 -24 0 23 c0 27 -17 36 -69 36 -24 0 -44 -7 -54 -18z"/>
<path d="M3090 286 c0 -8 4 -17 9 -20 11 -7 33 18 24 27 -12 12 -33 7 -33 -7z"/>
<path d="M1281 243 c0 -7 -10 -22 -21 -33 -11 -11 -15 -20 -10 -20 6 0 10 -20
10 -44 0 -53 21 -81 50 -66 29 15 32 27 7 26 -19 -1 -22 5 -25 41 -3 39 -1 42
25 46 l28 4 -27 2 c-21 1 -28 7 -31 29 -2 15 -5 21 -6 15z"/>
<path d="M413 203 c-16 -6 -17 -33 -2 -33 7 0 17 7 24 17 14 19 35 9 35 -18 0
-14 -7 -19 -29 -19 -27 0 -61 -22 -61 -38 1 -29 35 -42 77 -28 12 4 24 2 28
-4 4 -7 12 -7 26 0 22 12 26 32 4 24 -12 -5 -15 2 -15 34 0 59 -37 86 -87 65z
m55 -80 c-4 -22 -48 -31 -48 -10 0 19 10 27 32 27 13 0 18 -6 16 -17z"/>
<path d="M615 200 c-11 -5 -14 -9 -7 -9 8 -1 12 -18 12 -50 0 -30 -5 -51 -12
-54 -7 -3 5 -5 27 -5 22 0 34 2 28 5 -20 7 -17 92 3 100 9 3 19 1 23 -5 4 -6
12 -7 20 -3 7 5 10 14 7 20 -9 15 -39 14 -54 -1 -9 -9 -12 -9 -12 0 0 14 -7
14 -35 2z"/>
<path d="M1062 194 c-22 -15 -30 -66 -14 -90 15 -23 50 -34 75 -25 41 16 42
30 1 24 -25 -4 -39 -2 -45 8 -18 29 -10 39 36 39 33 0 45 4 45 14 0 17 -38 46
-60 46 -9 0 -26 -7 -38 -16z m62 -20 c4 -10 -3 -14 -24 -14 -32 0 -37 9 -19
27 14 14 35 7 43 -13z"/>
<path d="M1425 145 l0 -65 35 0 c20 0 30 4 23 8 -6 4 -13 32 -15 62 -2 46 -6
55 -23 58 -18 2 -20 -3 -20 -63z"/>
<path d="M1583 199 c-12 -4 -13 -8 -5 -13 16 -9 15 -79 0 -94 -9 -9 -3 -12 28
-12 24 0 34 3 26 9 -9 5 -12 24 -10 52 2 36 7 44 23 44 17 0 20 -7 20 -53 0
-51 1 -52 30 -52 22 0 26 3 17 12 -7 7 -12 31 -12 54 0 23 -6 46 -13 52 -13
11 -73 12 -104 1z"/>
<path d="M1835 194 c-9 -9 -15 -26 -14 -38 1 -11 -1 -28 -4 -36 -16 -43 -17
-89 -2 -104 36 -35 125 -8 125 38 0 33 -19 46 -67 46 -24 0 -43 5 -43 10 0 6
15 10 33 10 39 0 57 15 57 48 0 19 4 22 21 17 15 -5 20 -3 17 6 -7 20 -103 22
-123 3z m54 -13 c7 -13 6 -23 -3 -36 -16 -22 -36 -12 -36 19 0 39 22 49 39 17z
m36 -131 c0 -8 -12 -19 -27 -24 -33 -11 -78 6 -78 29 0 13 10 15 53 13 38 -2
52 -7 52 -18z"/>
<path d="M2465 190 c-23 -25 -24 -76 -2 -97 19 -19 75 -20 94 0 12 12 8 14
-28 13 -34 -1 -43 3 -50 22 -8 21 -6 22 41 22 54 0 61 9 30 40 -26 26 -62 26
-85 0z m65 -16 c0 -8 -10 -14 -25 -14 -26 0 -35 25 -12 33 18 6 37 -3 37 -19z"/>
<path d="M2665 200 c-11 -5 -14 -9 -7 -9 8 -1 12 -18 12 -50 0 -30 -5 -51 -12
-54 -7 -3 5 -5 27 -5 22 0 34 2 28 5 -20 7 -17 92 3 100 9 3 19 1 23 -5 4 -6
12 -7 20 -3 7 5 10 14 7 20 -9 15 -39 14 -54 -1 -9 -9 -12 -9 -12 0 0 14 -7
14 -35 2z"/>
<path d="M2840 200 c0 -5 4 -10 9 -12 5 -1 20 -27 35 -55 23 -47 46 -69 46
-45 0 5 15 33 33 63 32 53 32 54 10 54 -16 0 -21 -5 -18 -15 2 -8 -4 -30 -13
-48 l-18 -33 -17 37 c-13 26 -15 40 -7 49 8 10 3 13 -25 13 -19 0 -35 -4 -35
-8z"/>
<path d="M3085 145 l0 -65 35 0 c29 1 32 2 18 11 -14 8 -18 23 -18 64 0 46 -3
55 -17 55 -15 0 -18 -10 -18 -65z"/>
<path d="M3250 190 c-36 -36 -19 -102 30 -111 23 -5 70 10 70 22 0 6 -6 6 -19
-1 -27 -14 -37 -13 -55 6 -20 19 -21 68 -2 83 16 14 51 1 59 -21 7 -21 17 -4
10 20 -7 29 -64 31 -93 2z"/>
<path d="M3462 194 c-22 -15 -30 -66 -14 -90 15 -23 50 -34 75 -25 41 16 42
30 1 24 -25 -4 -39 -2 -45 8 -18 29 -10 39 36 39 33 0 45 4 45 14 0 17 -38 46
-60 46 -9 0 -26 -7 -38 -16z m62 -20 c4 -10 -3 -14 -24 -14 -32 0 -37 9 -19
27 14 14 35 7 43 -13z"/>
<path d="M3660 189 c-14 -25 -2 -41 40 -59 33 -14 41 -40 12 -40 -10 0 -28 7
-40 16 -20 14 -22 14 -22 -4 0 -23 42 -35 77 -21 34 13 31 56 -4 70 -15 6 -33
15 -41 21 -23 19 9 29 36 12 29 -19 39 -13 17 10 -23 23 -62 20 -75 -5z"/>
</g>
</svg>
